<svg width="288" height="48" viewBox="0 0 288 48" fill="none" xmlns="http://www.w3.org/2000/svg">
<path d="M8.88728 33.0828L10.5115 30.616C10.8748 30.0664 11.4885 29.7367 12.1479 29.7367H38.0958C39.1216 29.7367 39.8696 28.7628 39.604 27.7736L32.8262 2.47908C32.5453 1.43188 31.5958 0.702209 30.509 0.702209H4.36878C3.70932 0.702209 3.09566 1.03193 2.73234 1.58148L1.02264 4.17352C0.714277 4.64369 0.619634 5.22377 0.76618 5.76721L8.01106 32.805C8.19119 33.4797 8.8018 33.9468 9.49789 33.9468H35.3175C36.3433 33.9468 37.0913 32.9729 36.8257 31.9837L36.2243 29.7367" fill="white"/>
<path d="M4.55192 6.02061C4.24356 6.02061 3.95963 5.81605 3.8772 5.50159L3.72454 4.93678C3.62379 4.56431 3.84666 4.17963 4.21914 4.07888C4.59161 3.97812 4.97629 4.201 5.07704 4.57347L5.22969 5.13828C5.33044 5.51075 5.10757 5.89544 4.7351 5.99619C4.67099 6.01451 4.60993 6.02061 4.55192 6.02061Z" fill="#231F20"/>
<path d="M8.59728 21.121C8.28892 21.121 8.00498 20.9164 7.92255 20.602L4.7138 8.62791C4.61305 8.25544 4.83592 7.87076 5.20839 7.77001C5.58086 7.66926 5.96555 7.89213 6.0663 8.2646L9.27505 20.2387C9.3758 20.6111 9.15293 20.9958 8.78046 21.0966C8.71635 21.1118 8.65528 21.121 8.59728 21.121Z" fill="#231F20"/>
<path d="M10.2398 27.2454C9.93146 27.2454 9.64752 27.0408 9.56509 26.7264L9.35443 25.9448C9.25367 25.5723 9.47656 25.1876 9.84903 25.0869C10.2215 24.9861 10.6062 25.209 10.7069 25.5815L10.9176 26.3631C11.0183 26.7355 10.7955 27.1202 10.423 27.221C10.3589 27.2393 10.2978 27.2454 10.2398 27.2454Z" fill="#231F20"/>
<path d="M40.2787 27.5904L33.501 2.29589C33.1376 0.943388 31.9073 0 30.509 0H4.36878C3.47119 0 2.64381 0.445746 2.14922 1.19374L0.439515 3.78578C0.021248 4.42081 -0.10698 5.2085 0.0914682 5.94428L7.33635 32.9821C7.59891 33.959 8.48734 34.6429 9.50096 34.6429H35.3206C36.0289 34.6429 36.6822 34.3193 37.1127 33.7575C37.5432 33.1958 37.6867 32.4814 37.5035 31.7975L37.1616 30.5213L37.2379 30.4297H38.0989C38.8072 30.4297 39.4605 30.1061 39.891 29.5443C40.3215 28.9826 40.4619 28.2743 40.2787 27.5904ZM36.151 32.1669C36.2212 32.4264 36.1663 32.6981 36.0014 32.9149C35.8365 33.1286 35.5892 33.2507 35.3175 33.2507H9.61392L10.2795 32.2432H35.403C35.6106 32.2432 35.806 32.1516 35.9403 31.9929L36.0625 31.8463L36.151 32.1669ZM38.7797 28.7017C38.6148 28.9154 38.3675 29.0375 38.0958 29.0375H36.9082H36.2395C36.2304 29.0375 36.2182 29.0375 36.209 29.0375H12.5693H12.151C11.2534 29.0375 10.426 29.4833 9.93144 30.2313L8.59114 32.2646L1.44397 5.58708C1.34932 5.23598 1.41038 4.8635 1.60883 4.5582L3.31854 1.96616C3.55362 1.61201 3.94441 1.40135 4.36878 1.40135H30.509C31.2783 1.40135 31.9531 1.92037 32.1515 2.66226L38.9293 27.9568C38.9964 28.2132 38.9415 28.488 38.7797 28.7017Z" fill="black"/>
<path d="M24.6868 47.3008L19.5943 45.1118L15.6742 47.3008C13.9858 41.0482 15.2315 37.3113 13.4058 29.7367H22.4214C23.9663 36.1481 23.2091 41.2406 24.6868 47.3008Z" fill="#E8B221"/>
<path d="M24.6868 48C24.5921 48 24.5006 47.9817 24.412 47.942L19.634 45.8903L16.0131 47.9115C15.8238 48.0153 15.5979 48.0275 15.3994 47.945C15.201 47.8626 15.0514 47.6916 14.9964 47.484C14.1416 44.3241 14.0225 41.8115 13.8943 39.1492C13.766 36.4564 13.6317 33.6721 12.7249 29.9015C12.6761 29.6939 12.7219 29.4741 12.8562 29.3062C12.9875 29.1383 13.1921 29.0406 13.4058 29.0406H22.4214C22.7451 29.0406 23.0259 29.2604 23.1023 29.5749C23.8991 32.8752 24.0945 35.8336 24.2868 38.6974C24.4761 41.5245 24.6532 44.199 25.3707 47.136C25.4348 47.3924 25.3463 47.6642 25.1417 47.8351C25.0074 47.942 24.8486 48 24.6868 48ZM14.282 30.4358C15.0422 33.901 15.1704 36.5297 15.2926 39.0821C15.4055 41.4115 15.5093 43.625 16.126 46.2476L19.2524 44.5043C19.4417 44.3974 19.6706 44.3883 19.8691 44.4737L23.7129 46.1224C23.2091 43.567 23.0473 41.1459 22.8885 38.792C22.7115 36.145 22.5283 33.4125 21.8627 30.4389H14.282V30.4358Z" fill="#231F20"/>
<path d="M10.1421 14.0501H32.8384C32.2553 12.4747 31.376 10.994 30.2861 9.6751H10.3466C9.96805 10.994 9.87952 12.4747 10.1421 14.0501Z" fill="#E8B221"/>
<path d="M33.4643 16.3887H10.7679C11.3236 17.8939 12.151 19.3136 13.1737 20.5867H33.3055C33.6475 19.3136 33.7146 17.8939 33.4643 16.3887Z" fill="#E8B221"/>
<path d="M27.9353 7.33647C25.2761 5.16575 21.991 3.8102 18.7487 3.8102C15.5063 3.8102 12.9479 5.16575 11.4519 7.33647H27.9353Z" fill="#E8B221"/>
<path d="M15.4574 22.9253C18.1532 25.1998 21.5299 26.6287 24.8608 26.6287C28.1917 26.6287 30.802 25.2029 32.2797 22.9253H15.4574Z" fill="#E8B221"/>
<path d="M83.5587 12.3662C83.5587 20.0035 78.4323 24.3871 71.1402 24.3871H64.7374V35.027H56.3573V0.533569H71.1402C78.4323 0.533569 83.5587 4.72886 83.5587 12.3662ZM75.0739 12.4603C75.0739 9.84481 73.6406 8.51611 70.7845 8.51611H64.727V16.4045H70.7845C73.6511 16.4045 75.0739 15.0758 75.0739 12.4603Z" fill="#231F20"/>
<path d="M112.34 7.93024L112.288 35.0375H103.907V32.129C102.181 34.2528 99.7226 35.6756 96.2701 35.6756C89.3756 35.6756 84.0504 29.8588 84.0504 21.4786C84.0504 13.0462 89.4698 7.28159 96.2178 7.28159C99.6703 7.28159 102.233 8.75674 103.96 10.9747V7.9198H112.34V7.93024ZM103.96 21.4786C103.96 17.7332 101.491 15.2642 98.2474 15.2642C94.9937 15.2642 92.5351 17.7332 92.5351 21.4786C92.5351 25.2764 95.046 27.6827 98.2474 27.6827C101.491 27.6931 103.96 25.2764 103.96 21.4786Z" fill="#231F20"/>
<path d="M142.596 7.93024V34.6399C142.596 42.6748 137.229 48 128.943 48C122.342 48 115.887 44.7463 114.997 37.2554H123.618C124.256 39.9651 126.422 40.5615 128.692 40.5615C132.343 40.5615 134.216 38.8352 134.216 34.9434V31.6373C132.438 33.7611 129.979 35.184 126.526 35.184C119.632 35.184 114.307 29.367 114.307 21.238C114.307 13.0567 119.726 7.29207 126.526 7.29207C129.927 7.29207 132.49 8.76721 134.216 10.9433V7.94071H142.596V7.93024ZM134.216 21.2276C134.216 17.7332 131.747 15.2642 128.504 15.2642C125.25 15.2642 122.792 17.7332 122.792 21.2276C122.792 24.7742 125.302 27.1909 128.504 27.1909C131.757 27.2014 134.216 24.7847 134.216 21.2276Z" fill="#231F20"/>
<path d="M172.852 23.2572H153.09C153.487 27.442 156.145 29.2206 159.053 29.2206C161.323 29.2206 163.196 28.1325 163.834 26.1657H172.455C170.582 32.8718 164.912 35.6756 159.053 35.6756C150.38 35.6756 144.563 29.5135 144.563 21.4786C144.563 13.4438 150.432 7.28159 158.854 7.28159C167.831 7.28159 173.7 14.3331 172.852 23.2572ZM153.341 18.1726H164.138C163.593 15.5571 161.825 13.7367 158.812 13.7367C155.799 13.7367 154.031 15.5676 153.341 18.1726Z" fill="#231F20"/>
<path d="M205.578 17.7855C205.578 27.8919 197.836 35.0375 187.886 35.0375H176.598V0.533569H187.886C197.941 0.533569 205.578 7.62685 205.578 17.7855ZM202.973 17.7855C202.973 9.16477 196.424 3.0549 187.991 3.0549H179.224V32.5266H187.991C196.413 32.5161 202.92 26.4586 202.973 17.7855Z" fill="#231F20"/>
<path d="M230.425 23.5501H213.424L208.748 35.0375H205.944L220.183 0.544022H223.677L237.916 35.0375H235.102L230.425 23.5501ZM229.39 21.0811L221.899 2.89799L214.46 21.0811H229.39Z" fill="#231F20"/>
<path d="M273.592 17.7855C273.592 27.9337 265.902 35.5711 255.9 35.5711C245.899 35.5711 238.157 27.9337 238.157 17.7855C238.157 7.63732 245.941 1.07356e-05 255.9 1.07356e-05C265.913 -0.0104513 273.592 7.62686 273.592 17.7855ZM240.825 17.7855C240.825 26.5109 247.426 33.0601 255.9 33.0601C264.322 33.0601 270.976 26.5004 270.934 17.7855C270.987 9.06017 264.333 2.5109 255.9 2.5109C247.426 2.5109 240.825 9.06017 240.825 17.7855Z" fill="#231F20"/>
<path d="M287.893 30.8422C287.893 33.646 285.728 35.6756 282.819 35.6756C279.911 35.6756 277.745 33.6565 277.745 30.8422C277.745 28.0279 279.911 26.0087 282.819 26.0087C285.717 26.0087 287.893 28.0383 287.893 30.8422Z" fill="#231F20"/>
</svg>
