<?xml version="1.0" encoding="utf-8"?>
<!-- Generator: Adobe Illustrator 26.0.1, SVG Export Plug-In . SVG Version: 6.00 Build 0)  -->
<svg version="1.1" id="Layer_1" xmlns="http://www.w3.org/2000/svg" xmlns:xlink="http://www.w3.org/1999/xlink" x="0px" y="0px"
	 viewBox="0 0 288 48" style="enable-background:new 0 0 288 48;" xml:space="preserve">
<style type="text/css">
	.st0{fill:#FFFFFF;}
	.st1{fill:#231F20;}
	.st2{fill:#E8B221;}
</style>
<path class="st0" d="M8.9,33.1l1.6-2.5c0.4-0.5,1-0.9,1.6-0.9h25.9c1,0,1.8-1,1.5-2L32.8,2.5c-0.3-1-1.2-1.8-2.3-1.8H4.4
	C3.7,0.7,3.1,1,2.7,1.6L1,4.2C0.7,4.6,0.6,5.2,0.8,5.8l7.2,27c0.2,0.7,0.8,1.1,1.5,1.1h25.8c1,0,1.8-1,1.5-2l-0.6-2.2"/>
<path class="st1" d="M4.6,6C4.2,6,4,5.8,3.9,5.5L3.7,4.9C3.6,4.6,3.8,4.2,4.2,4.1C4.6,4,5,4.2,5.1,4.6l0.2,0.6
	C5.3,5.5,5.1,5.9,4.7,6C4.7,6,4.6,6,4.6,6z"/>
<path class="st1" d="M8.6,21.1c-0.3,0-0.6-0.2-0.7-0.5l-3.2-12C4.6,8.3,4.8,7.9,5.2,7.8C5.6,7.7,6,7.9,6.1,8.3l3.2,12
	c0.1,0.4-0.1,0.8-0.5,0.9C8.7,21.1,8.7,21.1,8.6,21.1z"/>
<path class="st1" d="M10.2,27.2c-0.3,0-0.6-0.2-0.7-0.5l-0.2-0.8c-0.1-0.4,0.1-0.8,0.5-0.9c0.4-0.1,0.8,0.1,0.9,0.5l0.2,0.8
	c0.1,0.4-0.1,0.8-0.5,0.9C10.4,27.2,10.3,27.2,10.2,27.2z"/>
<path d="M40.3,27.6L33.5,2.3c-0.4-1.4-1.6-2.3-3-2.3H4.4C3.5,0,2.6,0.4,2.1,1.2L0.4,3.8C0,4.4-0.1,5.2,0.1,5.9l7.2,27
	c0.3,1,1.2,1.7,2.2,1.7h25.8c0.7,0,1.4-0.3,1.8-0.9c0.4-0.6,0.6-1.3,0.4-2l-0.3-1.3l0.1-0.1h0.9c0.7,0,1.4-0.3,1.8-0.9
	C40.3,29,40.5,28.3,40.3,27.6z M36.2,32.2c0.1,0.3,0,0.5-0.1,0.7c-0.2,0.2-0.4,0.3-0.7,0.3H9.6l0.7-1h25.1c0.2,0,0.4-0.1,0.5-0.3
	l0.1-0.1L36.2,32.2z M38.8,28.7c-0.2,0.2-0.4,0.3-0.7,0.3h-1.2h-0.7c0,0,0,0,0,0H12.6h-0.4c-0.9,0-1.7,0.4-2.2,1.2l-1.3,2L1.4,5.6
	c-0.1-0.4,0-0.7,0.2-1L3.3,2c0.2-0.4,0.6-0.6,1.1-0.6h26.1c0.8,0,1.4,0.5,1.6,1.3L38.9,28C39,28.2,38.9,28.5,38.8,28.7z"/>
<path class="st2" d="M24.7,47.3l-5.1-2.2l-3.9,2.2c-1.7-6.3-0.4-10-2.3-17.6h9C24,36.1,23.2,41.2,24.7,47.3z"/>
<path class="st1" d="M24.7,48c-0.1,0-0.2,0-0.3-0.1l-4.8-2.1l-3.6,2c-0.2,0.1-0.4,0.1-0.6,0c-0.2-0.1-0.3-0.3-0.4-0.5
	c-0.9-3.2-1-5.7-1.1-8.3c-0.1-2.7-0.3-5.5-1.2-9.2c0-0.2,0-0.4,0.1-0.6c0.1-0.2,0.3-0.3,0.5-0.3h9c0.3,0,0.6,0.2,0.7,0.5
	c0.8,3.3,1,6.3,1.2,9.1c0.2,2.8,0.4,5.5,1.1,8.4c0.1,0.3,0,0.5-0.2,0.7C25,47.9,24.8,48,24.7,48z M14.3,30.4c0.8,3.5,0.9,6.1,1,8.6
	c0.1,2.3,0.2,4.5,0.8,7.2l3.1-1.7c0.2-0.1,0.4-0.1,0.6,0l3.8,1.6c-0.5-2.6-0.7-5-0.8-7.3c-0.2-2.6-0.4-5.4-1-8.4L14.3,30.4
	L14.3,30.4z"/>
<path class="st2" d="M10.1,14.1h22.7c-0.6-1.6-1.5-3.1-2.6-4.4H10.3C10,11,9.9,12.5,10.1,14.1z"/>
<path class="st2" d="M33.5,16.4H10.8c0.6,1.5,1.4,2.9,2.4,4.2h20.1C33.6,19.3,33.7,17.9,33.5,16.4z"/>
<path class="st2" d="M27.9,7.3c-2.7-2.2-5.9-3.5-9.2-3.5c-3.2,0-5.8,1.4-7.3,3.5H27.9z"/>
<path class="st2" d="M15.5,22.9c2.7,2.3,6.1,3.7,9.4,3.7s5.9-1.4,7.4-3.7H15.5z"/>
<path class="st0" d="M83.6,12.4c0,7.6-5.1,12-12.4,12h-6.4V35h-8.4V0.5h14.8C78.4,0.5,83.6,4.7,83.6,12.4z M75.1,12.5
	c0-2.6-1.4-3.9-4.3-3.9h-6.1v7.9h6.1C73.7,16.4,75.1,15.1,75.1,12.5z"/>
<path class="st0" d="M112.3,7.9L112.3,35h-8.4v-2.9c-1.7,2.1-4.2,3.5-7.6,3.5c-6.9,0-12.2-5.8-12.2-14.2c0-8.4,5.4-14.2,12.2-14.2
	c3.5,0,6,1.5,7.7,3.7V7.9L112.3,7.9L112.3,7.9z M104,21.5c0-3.7-2.5-6.2-5.7-6.2c-3.3,0-5.7,2.5-5.7,6.2c0,3.8,2.5,6.2,5.7,6.2
	C101.5,27.7,104,25.3,104,21.5z"/>
<path class="st0" d="M142.6,7.9v26.7c0,8-5.4,13.4-13.7,13.4c-6.6,0-13.1-3.3-13.9-10.7h8.6c0.6,2.7,2.8,3.3,5.1,3.3
	c3.7,0,5.5-1.7,5.5-5.6v-3.3c-1.8,2.1-4.2,3.5-7.7,3.5c-6.9,0-12.2-5.8-12.2-13.9c0-8.2,5.4-13.9,12.2-13.9c3.4,0,6,1.5,7.7,3.7v-3
	L142.6,7.9L142.6,7.9z M134.2,21.2c0-3.5-2.5-6-5.7-6c-3.3,0-5.7,2.5-5.7,6c0,3.5,2.5,6,5.7,6C131.8,27.2,134.2,24.8,134.2,21.2z"/>
<path class="st0" d="M172.9,23.3h-19.8c0.4,4.2,3.1,6,6,6c2.3,0,4.1-1.1,4.8-3.1h8.6c-1.9,6.7-7.5,9.5-13.4,9.5
	c-8.7,0-14.5-6.2-14.5-14.2c0-8,5.9-14.2,14.3-14.2C167.8,7.3,173.7,14.3,172.9,23.3z M153.3,18.2h10.8c-0.5-2.6-2.3-4.4-5.3-4.4
	S154,15.6,153.3,18.2z"/>
<path class="st0" d="M205.6,17.8c0,10.1-7.7,17.3-17.7,17.3h-11.3V0.5h11.3C197.9,0.5,205.6,7.6,205.6,17.8z M203,17.8
	c0-8.6-6.5-14.7-15-14.7h-8.8v29.5h8.8C196.4,32.5,202.9,26.5,203,17.8z"/>
<path class="st0" d="M230.4,23.6h-17L208.7,35h-2.8l14.2-34.5h3.5L237.9,35h-2.8L230.4,23.6z M229.4,21.1l-7.5-18.2l-7.4,18.2H229.4
	z"/>
<path class="st0" d="M273.6,17.8c0,10.1-7.7,17.8-17.7,17.8c-10,0-17.7-7.6-17.7-17.8c0-10.1,7.8-17.8,17.7-17.8
	C265.9,0,273.6,7.6,273.6,17.8z M240.8,17.8c0,8.7,6.6,15.3,15.1,15.3c8.4,0,15.1-6.6,15-15.3c0.1-8.7-6.6-15.3-15-15.3
	C247.4,2.5,240.8,9.1,240.8,17.8z"/>
<path class="st0" d="M287.9,30.8c0,2.8-2.2,4.8-5.1,4.8c-2.9,0-5.1-2-5.1-4.8c0-2.8,2.2-4.8,5.1-4.8C285.7,26,287.9,28,287.9,30.8z"
	/>
</svg>
